<?xml version="1.0" encoding="UTF-8"?>
<svg width="120px" height="120px" viewBox="0 0 120 120" version="1.1" xmlns="http://www.w3.org/2000/svg" xmlns:xlink="http://www.w3.org/1999/xlink">
    <title>cube_l</title>
    <g id="Page-1" stroke="none" stroke-width="1" fill="none" fill-rule="evenodd">
        <g id="Group-Copy-3" transform="translate(9.000000, 15.000000)">
            <path d="M97.9617444,10.4812622 L73.0737444,6.62063722 C72.8187444,6.23438722 72.4220778,5.93626222 71.9026333,5.82938722 L67.6809667,5.12813722 C67.1294111,5.02313722 66.5533,5.16751222 65.9601889,5.40001222 L55.5845222,3.62063722 C55.3994111,3.18563722 55.1255222,2.82376222 54.5513,2.71876222 L50.4901889,1.96688722 C49.7327444,1.81126222 48.9450778,1.91813722 48.4388556,2.39438722 L37.3680778,0.0993872236 C35.1958556,-0.266237776 32.7969667,0.429387224 31.8034111,1.96501222 L1.55096667,37.3912622 C0.659411111,38.6962622 0.334522222,40.6162622 0.309966667,42.2925122 L1.67185556,73.6125122 C1.69641111,75.1612622 2.73152222,76.5768872 4.46363333,76.9031372 L71.8799667,89.3381372 C73.9388556,89.7675122 76.1998556,88.9406372 77.1121889,87.3637622 L98.0278556,53.0287622 C98.8060778,51.5812622 99.2103,49.8862622 99.2405222,48.1237622 L101.272967,14.3587622 C101.244633,12.6337622 100.001744,10.8637622 97.9617444,10.4812622" id="Fill-629" fill="#FFFFFF"></path>
            <path d="M67.0438444,32.4247622 C66.7246222,32.8803872 66.6396222,33.5553872 66.6396222,34.0316372 L66.6396222,35.6010122 C66.6755111,36.1503872 67.6482889,36.6547622 68.5417333,36.7653872 L74.6239556,37.9035122 C75.7308444,38.1585122 76.9416222,37.7216372 77.6046222,36.6603872 L79.4802889,33.7035122 C80.4360667,32.0947622 77.6046222,30.8178872 78.5245111,29.3928872 L80.9064,27.4522622 C81.6789556,26.3216372 84.6936222,27.2310122 85.4321778,26.0628872 L85.8722889,25.3335122 C86.1650667,24.7841372 86.6467333,23.9085122 86.6467333,23.4322622 L86.6467333,21.8272622 C86.6467333,21.2047622 86.0951778,20.5110122 85.3226222,20.3347622 C85.6890667,21.0603872 85.6154,21.7897622 85.1752889,22.6316372 L84.7332889,23.3610122 C83.9966222,24.5291372 81.3106222,23.5803872 80.5380667,24.7110122 L77.1966222,28.0803872 C76.2805111,29.5035122 78.7455111,30.7428872 77.7859556,32.3516372 L76.2805111,34.6147622 C76.0255111,35.0553872 75.2491778,35.1997622 74.6239556,35.0553872 L68.5417333,33.9172622 C67.8900667,33.8478872 66.9342889,33.4466372 67.0438444,32.4247622" id="Fill-631" fill="#BEB5AA"></path>
            <path d="M14.3880444,22.3485122 C14.0386,22.7891372 13.9177111,23.4566372 13.8931556,23.9291372 L13.8081556,25.4891372 C13.8157111,26.0347622 14.7696,26.5672622 15.6592667,26.7135122 L21.7131556,28.0672622 C22.8106,28.3616372 24.0553778,27.9735122 24.7788222,26.9460122 L27.0077111,24.2572622 C28.0560444,22.6972622 25.8101556,21.4766372 26.8131556,20.0947622 L28.6000444,18.0678872 C29.4387111,16.9710122 32.5421556,17.9347622 33.3468222,16.8022622 L33.8813778,16.1328872 C34.2081556,15.5985122 34.8314889,14.8935122 34.8579333,14.4210122 L34.9448222,12.8272622 C34.9769333,12.2103872 34.3120444,11.3178872 33.5451556,11.1135122 C33.8757111,11.8466372 34.0079333,12.5141372 33.5168222,13.3316372 L32.7877111,14.0947622 C31.9868222,15.2291372 29.2177111,14.2391372 28.3809333,15.3360122 L25.5513778,18.7410122 C24.5502667,20.1228872 26.4259333,21.2928872 25.3776,22.8528872 L23.5567111,24.8647622 C23.2733778,25.2903872 22.4894889,25.4066372 21.8680444,25.2397622 L15.8141556,23.8860122 C15.1606,23.7922622 14.2218222,23.3610122 14.3880444,22.3485122" id="Fill-632" fill="#BEB5AA"></path>
            <path d="M24.242,39.0223247 L24.242,40.5860747 C24.2514444,41.2610747 25.4508889,41.6810747 26.4066667,41.7954497 L29.3816667,42.3410747 C31.0495556,42.6898247 32.9327778,41.0979497 33.8488889,40.9010747 C34.4061111,40.7791997 35.1937778,39.6073247 35.309,38.3754497 L35.5375556,36.0448247 C35.5451111,35.6266997 35.0691111,35.8254497 34.9331111,36.0091997 L33.8507778,38.1973247 C32.3717778,38.6304497 31.0495556,39.9898247 29.3816667,39.6429497 L26.4066667,39.0916997 C25.6397778,39.0279497 24.2986667,38.1804497 24.242,39.0223247" id="Fill-633" fill="#BEB5AA"></path>
            <path d="M41.5102222,39.8131997 C42.3167778,40.7581997 42.7682222,42.1400747 44.2661111,42.4119497 L47.6642222,43.0156997 C48.3026667,43.1263247 49.028,42.9219497 49.2527778,42.4663247 L52.105,38.0038247 C52.2447778,37.8163247 52.7302222,37.6119497 52.7207778,38.0413247 L52.7207778,39.8169497 C52.7132222,40.2838247 52.3108889,41.3094497 51.8103333,42.0313247 L50.0933333,44.8381997 C49.6381111,45.6219497 48.7257778,45.9200747 47.6642222,45.7138247 L44.2661111,45.1119497 C42.7663333,44.8419497 42.3148889,43.4544497 41.5064444,42.5094497 L41.5102222,39.8131997 Z" id="Fill-634" fill="#BEB5AA"></path>
            <path d="M45.0212889,8.55394972 L45.0212889,10.0895747 C45.0307333,10.7514497 46.2112889,11.1658247 47.1481778,11.2745747 L50.0721778,11.8145747 C52.1858444,12.2570747 53.7328444,9.91332472 55.7634,10.3201997 L60.5989556,11.1320747 C62.5917333,11.4845747 62.5709556,14.1526997 64.6959556,14.5389497 L68.0336222,15.1314497 C69.0800667,15.3301997 69.9735111,15.0358247 70.4268444,14.2689497 L72.1098444,11.5089497 C72.6028444,10.7983247 72.9976222,9.79332472 73.0051778,9.33207472 L73.0051778,7.58644972 C73.0127333,7.16832472 72.5367333,7.36707472 72.4007333,7.55082472 L69.5957333,11.9345747 C69.3747333,12.3826997 68.6664,12.5851997 68.0336222,12.4764497 L64.6959556,11.8820747 C62.5709556,11.4958247 62.5917333,8.82957472 60.5989556,8.47894972 L55.7634,7.66519972 C53.7328444,7.25644972 52.1858444,9.60207472 50.0721778,9.15957472 L47.1481778,8.62144972 C46.3945111,8.55582472 45.0741778,7.72707472 45.0212889,8.55394972" id="Fill-635" fill="#BEB5AA"></path>
            <path d="M76.1348778,87.3592622 L97.7173222,53.0223872 C98.4955444,51.5786372 98.8997667,49.8836372 98.9299889,48.1211372 L100.964322,14.3542622 C100.960544,13.2967622 100.4921,12.6330122 99.9348778,13.3323872 L72.5592111,51.3967622 C71.8301,52.5986372 71.3975444,53.0955122 71.4164333,54.5242622 L71.4164333,86.3148872 C71.4334333,88.7580122 74.8164333,89.6130122 76.1348778,87.3592622" id="Fill-636" fill="#BEB5AA"></path>
            <path d="M86.6465444,23.4341372 L86.6465444,21.8272622 C86.6465444,21.2066372 86.0949889,20.5128872 85.3224333,20.3347622 L78.0728778,19.0878872 C77.3362111,18.9791372 76.4899889,19.2716372 76.1953222,19.7835122 L75.0563222,21.5703872 C73.9154333,23.2897622 77.1851,24.4616372 76.4163222,25.7347622 L73.8549889,28.5810122 C73.0824333,29.8597622 69.4425444,28.8810122 68.7058778,30.0885122 L67.0436556,32.4266372 C66.7225444,32.8803872 66.6375444,33.5572622 66.6375444,34.0316372 L66.6375444,35.6028872" id="Stroke-637" stroke="#5C5142" stroke-width="0.945" stroke-linecap="round" stroke-linejoin="round"></path>
            <path d="M68.5409778,36.7668872 L74.6232,37.9031372" id="Stroke-638" stroke="#5C5142" stroke-width="1.4175" stroke-linecap="round" stroke-linejoin="round"></path>
            <path d="M77.6046222,36.6616997 L79.4802889,33.7010747 C80.4379556,32.0960747 77.6046222,30.8173247 78.5245111,29.3941997 L80.9064,27.4535747 C81.6789556,26.3191997 84.6955111,27.2323247 85.4321778,26.0641997 L85.8741778,25.3329497" id="Stroke-639" stroke="#5C5142" stroke-width="1.4175" stroke-linecap="round" stroke-linejoin="round"></path>
            <path d="M34.8668111,14.4305747 L34.9574778,12.8386997 C34.9933667,12.2255747 34.3247,11.3311997 33.5578111,11.1286997 L26.4234778,9.54619972 C25.6887,9.41119972 24.8198111,9.66619972 24.4930333,10.1630747 L22.9800333,11.8243247 C21.7333667,13.4818247 24.8292556,14.7774497 23.9849222,16.0074497 L21.4727,18.8011997 C20.6245889,20.0368247 16.7655889,18.8893247 15.9552556,20.0536997 L14.3421444,22.3130747 C13.9908111,22.7555747 13.8699222,23.4193247 13.8434778,23.8880747 L13.7565889,25.4443247" id="Stroke-640" stroke="#5C5142" stroke-width="0.945" stroke-linecap="round" stroke-linejoin="round"></path>
            <path d="M15.6073222,26.6692622 L21.6744333,28.0305122" id="Stroke-641" stroke="#5C5142" stroke-width="1.4175" stroke-linecap="round" stroke-linejoin="round"></path>
            <path d="M24.7459556,26.9131997 L26.9824,24.2356997 C28.0364,22.6794497 25.7867333,21.4550747 26.7954,20.0806997 L28.5917333,18.0613247 C29.4341778,16.9700747 32.5395111,17.9356997 33.3460667,16.8050747 L33.8862889,16.1356997" id="Stroke-642" stroke="#5C5142" stroke-width="1.4175" stroke-linecap="round" stroke-linejoin="round"></path>
            <path d="M24.242,40.5860747 L24.242,39.0223247 C24.242,38.2891997 24.3364444,37.4341997 24.769,36.7966997 L27.2321111,33.0429497 C27.7005556,32.3229497 28.6487778,32.1410747 29.546,32.3285747 L33.6581111,33.0916997 C34.6988889,33.2829497 34.9992222,34.6085747 35.088,35.0960747 C35.1767778,35.5816997 33.9754444,38.0210747 33.9754444,38.0210747" id="Stroke-643" stroke="#5C5142" stroke-width="0.945" stroke-linecap="round" stroke-linejoin="round"></path>
            <path d="M52.7228556,39.8167622 L52.7228556,38.0392622 C52.6983,37.2105122 52.1505222,36.4286372 51.2193,36.2392622 L46.9466333,35.5305122 C45.7094111,35.2886372 44.3361889,36.3030122 42.9516333,36.7736372 L41.5066333,39.3498872" id="Stroke-644" stroke="#5C5142" stroke-width="0.945" stroke-linecap="round" stroke-linejoin="round"></path>
            <path d="M50.0965444,44.8393247 L51.8097667,42.0305747" id="Stroke-645" stroke="#5C5142" stroke-width="1.4175" stroke-linecap="round" stroke-linejoin="round"></path>
            <path d="M73.0767667,9.86907472 L73.0767667,8.11407472 C73.0541,7.29282472 72.5138778,6.51844972 71.5902111,6.33094972 L67.3685444,5.63157472 C65.6723222,5.30344972 63.7135444,7.36407472 61.8284333,7.05844972 L56.7341,6.16782472 C55.0832111,5.91094972 55.8859889,3.52407472 54.2407667,3.22219972 L50.1777667,2.47032472 C49.2918778,2.28469972 48.3568778,2.46282472 47.8922111,3.17532472 L45.4555444,6.88407472 C45.0324333,7.51594972 44.9379889,8.35594972 44.9379889,9.08344972 L44.9379889,10.6284497" id="Stroke-646" stroke="#5C5142" stroke-width="1.41" stroke-linecap="round" stroke-linejoin="round"></path>
            <path d="M47.0773444,11.3152622 L50.0183444,11.8571372 C52.1395667,12.3015122 53.6941222,9.94276222 55.7435667,10.3533872 L60.5999,11.1708872 C62.6059,11.5233872 62.5851222,14.2065122 64.7233444,14.5946372 L68.0799,15.1908872" id="Stroke-647" stroke="#5C5142" stroke-width="1.4175" stroke-linecap="round" stroke-linejoin="round"></path>
            <path d="M70.4823778,14.8321997 L72.1767111,12.0571997" id="Stroke-648" stroke="#5C5142" stroke-width="1.4175" stroke-linecap="round" stroke-linejoin="round"></path>
            <path d="M97.6517778,10.4775122 L72.7637778,6.61688722 C72.5087778,6.23063722 72.1121111,5.93251222 71.5926667,5.82563722 L67.371,5.12438722 C66.8194444,5.01938722 66.2433333,5.16376222 65.6502222,5.39626222 L55.2745556,3.61688722 C55.0894444,3.18188722 54.8155556,2.82001222 54.2413333,2.71501222 L50.1802222,1.96313722 C49.4227778,1.80751222 48.6351111,1.91438722 48.1288889,2.39063722 L37.0581111,0.0956372236 C34.8858889,-0.269987776 32.487,0.425637224 31.4934444,1.96126222 L1.241,37.3875122 C0.349444444,38.6925122 0.0245555556,40.6125122 0,42.2887622 L1.36188889,73.6087622 C1.38644444,75.1575122 2.42155556,76.5731372 4.15366667,76.8993872 L71.57,89.3343872 C73.6288889,89.7637622 75.8898889,88.9368872 76.8022222,87.3600122 L97.7178889,53.0250122 C98.4961111,51.5775122 98.9003333,49.8825122 98.9305556,48.1200122 L100.963,14.3550122 C100.932778,12.6300122 99.6917778,10.8600122 97.6517778,10.4775122 Z" id="Stroke-649" stroke="#5C5142" stroke-width="3.3075" stroke-linecap="round" stroke-linejoin="round"></path>
            <path d="M0.590655556,40.2688247 L68.1505444,52.5500747 C70.3435444,52.9494497 72.2872111,52.2294497 73.2278778,50.7350747 L99.6232111,13.2163247" id="Stroke-650" stroke="#5C5142" stroke-width="1.4175" stroke-linecap="round" stroke-linejoin="round"></path>
            <path d="M33.1749333,41.1562622 C31.9566,41.7093872 30.7930444,42.6356372 29.3820444,42.3412622 L26.4070444,41.7956372" id="Stroke-651" stroke="#5C5142" stroke-width="1.4175" stroke-linecap="round" stroke-linejoin="round"></path>
            <path d="M47.6632778,45.7065122 L44.2670556,45.1046372" id="Stroke-652" stroke="#5C5142" stroke-width="1.4175" stroke-linecap="round" stroke-linejoin="round"></path>
            <path d="M43.1288111,36.8083247 L41.6573667,39.1464497 C41.3343667,39.6020747 41.2493667,40.2770747 41.2493667,40.7514497 L41.2493667,42.3226997" id="Stroke-653" stroke="#5C5142" stroke-width="0.945" stroke-linecap="round" stroke-linejoin="round"></path>
        </g>
    </g>
</svg>