<?xml version="1.0" encoding="UTF-8"?>
<svg width="40px" height="40px" viewBox="0 0 40 40" version="1.1" xmlns="http://www.w3.org/2000/svg" xmlns:xlink="http://www.w3.org/1999/xlink">
    <title>cube_m</title>
    <g id="Page-1" stroke="none" stroke-width="1" fill="none" fill-rule="evenodd">
        <g id="Group-Copy-3" transform="translate(3.000000, 5.000000)">
            <path d="M32.6539148,3.49375407 L24.3579148,2.20687907 C24.2729148,2.07812907 24.1406926,1.97875407 23.9675444,1.94312907 L22.5603222,1.70937907 C22.3764704,1.67437907 22.1844333,1.72250407 21.9867296,1.80000407 L18.5281741,1.20687907 C18.4664704,1.06187907 18.3751741,0.941254075 18.1837667,0.906254075 L16.830063,0.655629075 C16.5775815,0.603754075 16.3150259,0.639379075 16.1462852,0.798129075 L12.4560259,0.0331290745 C11.7319519,-0.0887459255 10.9323222,0.143129075 10.601137,0.655004075 L0.516988889,12.4637541 C0.219803704,12.8987541 0.111507407,13.5387541 0.103322222,14.0975041 L0.557285185,24.5375041 C0.56547037,25.0537541 0.910507407,25.5256291 1.48787778,25.6343791 L23.9599889,29.7793791 C24.6462852,29.9225041 25.3999519,29.6468791 25.704063,29.1212541 L32.6759519,17.6762541 C32.9353593,17.1937541 33.0701,16.6287541 33.0801741,16.0412541 L33.7576556,4.78625407 C33.7482111,4.21125407 33.3339148,3.62125407 32.6539148,3.49375407" id="Fill-629" fill="#FFFFFF"></path>
            <path d="M22.3479481,10.8082541 C22.2415407,10.9601291 22.2132074,11.1851291 22.2132074,11.3438791 L22.2132074,11.8670041 C22.2251704,12.0501291 22.5494296,12.2182541 22.8472444,12.2551291 L24.8746519,12.6345041 C25.2436148,12.7195041 25.6472074,12.5738791 25.8682074,12.2201291 L26.4934296,11.2345041 C26.8120222,10.6982541 25.8682074,10.2726291 26.174837,9.79762907 L26.9688,9.15075407 C27.2263185,8.77387907 28.2312074,9.07700407 28.4773926,8.68762907 L28.6240963,8.44450407 C28.7216889,8.26137907 28.8822444,7.96950407 28.8822444,7.81075407 L28.8822444,7.27575407 C28.8822444,7.06825407 28.6983926,6.83700407 28.4408741,6.77825407 C28.5630222,7.02012907 28.5384667,7.26325407 28.391763,7.54387907 L28.2444296,7.78700407 C27.9988741,8.17637907 27.1035407,7.86012907 26.8460222,8.23700407 L25.7322074,9.36012907 C25.426837,9.83450407 26.2485037,10.2476291 25.9286519,10.7838791 L25.426837,11.5382541 C25.341837,11.6851291 25.0830593,11.7332541 24.8746519,11.6851291 L22.8472444,11.3057541 C22.6300222,11.2826291 22.3114296,11.1488791 22.3479481,10.8082541" id="Fill-631" fill="#BEB5AA"></path>
            <path d="M4.79601481,7.44950407 C4.67953333,7.59637907 4.63923704,7.81887907 4.63105185,7.97637907 L4.60271852,8.49637907 C4.60523704,8.67825407 4.9232,8.85575407 5.21975556,8.90450407 L7.23771852,9.35575407 C7.60353333,9.45387907 8.01845926,9.32450407 8.25960741,8.98200407 L9.00257037,8.08575407 C9.35201481,7.56575407 8.60338519,7.15887907 8.93771852,6.69825407 L9.53334815,6.02262907 C9.8129037,5.65700407 10.8473852,5.97825407 11.1156074,5.60075407 L11.2937926,5.37762907 C11.4027185,5.19950407 11.6104963,4.96450407 11.6193111,4.80700407 L11.6482741,4.27575407 C11.6589778,4.07012907 11.4373481,3.77262907 11.1817185,3.70450407 C11.2919037,3.94887907 11.3359778,4.17137907 11.1722741,4.44387907 L10.929237,4.69825407 C10.6622741,5.07637907 9.73923704,4.74637907 9.46031111,5.11200407 L8.51712593,6.24700407 C8.18342222,6.70762907 8.80864444,7.09762907 8.4592,7.61762907 L7.85223704,8.28825407 C7.75779259,8.43012907 7.4964963,8.46887907 7.28934815,8.41325407 L5.27138519,7.96200407 C5.05353333,7.93075407 4.74060741,7.78700407 4.79601481,7.44950407" id="Fill-632" fill="#BEB5AA"></path>
            <path d="M8.08066667,13.0074416 L8.08066667,13.5286916 C8.08381481,13.7536916 8.48362963,13.8936916 8.80222222,13.9318166 L9.79388889,14.1136916 C10.3498519,14.2299416 10.9775926,13.6993166 11.282963,13.6336916 C11.4687037,13.5930666 11.7312593,13.2024416 11.7696667,12.7918166 L11.8458519,12.0149416 C11.8483704,11.8755666 11.6897037,11.9418166 11.6443704,12.0030666 L11.2835926,12.7324416 C10.7905926,12.8768166 10.3498519,13.3299416 9.79388889,13.2143166 L8.80222222,13.0305666 C8.54659259,13.0093166 8.09955556,12.7268166 8.08066667,13.0074416" id="Fill-633" fill="#BEB5AA"></path>
            <path d="M13.8367407,13.2710666 C14.1055926,13.5860666 14.2560741,14.0466916 14.7553704,14.1373166 L15.8880741,14.3385666 C16.1008889,14.3754416 16.3426667,14.3073166 16.4175926,14.1554416 L17.3683333,12.6679416 C17.4149259,12.6054416 17.5767407,12.5373166 17.5735926,12.6804416 L17.5735926,13.2723166 C17.5710741,13.4279416 17.436963,13.7698166 17.2701111,14.0104416 L16.6977778,14.9460666 C16.546037,15.2073166 16.2419259,15.3066916 15.8880741,15.2379416 L14.7553704,15.0373166 C14.2554444,14.9473166 14.104963,14.4848166 13.8354815,14.1698166 L13.8367407,13.2710666 Z" id="Fill-634" fill="#BEB5AA"></path>
            <path d="M15.0070963,2.85131657 L15.0070963,3.36319157 C15.0102444,3.58381657 15.403763,3.72194157 15.7160593,3.75819157 L16.6907259,3.93819157 C17.3952815,4.08569157 17.9109481,3.30444157 18.5878,3.44006657 L20.1996519,3.71069157 C20.8639111,3.82819157 20.8569852,4.71756657 21.5653185,4.84631657 L22.6778741,5.04381657 C23.0266889,5.11006657 23.3245037,5.01194157 23.4756148,4.75631657 L24.0366148,3.83631657 C24.2009481,3.59944157 24.3325407,3.26444157 24.3350593,3.11069157 L24.3350593,2.52881657 C24.3375778,2.38944157 24.1789111,2.45569157 24.1335778,2.51694157 L23.1985778,3.97819157 C23.1249111,4.12756657 22.8888,4.19506657 22.6778741,4.15881657 L21.5653185,3.96069157 C20.8569852,3.83194157 20.8639111,2.94319157 20.1996519,2.82631657 L18.5878,2.55506657 C17.9109481,2.41881657 17.3952815,3.20069157 16.6907259,3.05319157 L15.7160593,2.87381657 C15.464837,2.85194157 15.0247259,2.57569157 15.0070963,2.85131657" id="Fill-635" fill="#BEB5AA"></path>
            <path d="M25.3782926,29.1197541 L32.5724407,17.6741291 C32.8318481,17.1928791 32.9665889,16.6278791 32.976663,16.0403791 L33.6547741,4.78475407 C33.6535148,4.43225407 33.4973667,4.21100407 33.3116259,4.44412907 L24.1864037,17.1322541 C23.9433667,17.5328791 23.7991815,17.6985041 23.8054778,18.1747541 L23.8054778,28.7716291 C23.8111444,29.5860041 24.9388111,29.8710041 25.3782926,29.1197541" id="Fill-636" fill="#BEB5AA"></path>
            <path d="M28.8821815,7.81137907 L28.8821815,7.27575407 C28.8821815,7.06887907 28.6983296,6.83762907 28.4408111,6.77825407 L26.0242926,6.36262907 C25.778737,6.32637907 25.496663,6.42387907 25.3984407,6.59450407 L25.0187741,7.19012907 C24.6384778,7.76325407 25.7283667,8.15387907 25.4721074,8.57825407 L24.6183296,9.52700407 C24.3608111,9.95325407 23.1475148,9.62700407 22.9019593,10.0295041 L22.3478852,10.8088791 C22.2408481,10.9601291 22.2125148,11.1857541 22.2125148,11.3438791 L22.2125148,11.8676291" id="Stroke-637" stroke="#5C5142" stroke-width="0.315" stroke-linecap="round" stroke-linejoin="round"></path>
            <path d="M22.8469926,12.2556291 L24.8744,12.6343791" id="Stroke-638" stroke="#5C5142" stroke-width="0.4725" stroke-linecap="round" stroke-linejoin="round"></path>
            <path d="M25.8682074,12.2205666 L26.4934296,11.2336916 C26.8126519,10.6986916 25.8682074,10.2724416 26.174837,9.79806657 L26.9688,9.15119157 C27.2263185,8.77306657 28.231837,9.07744157 28.4773926,8.68806657 L28.6247259,8.44431657" id="Stroke-639" stroke="#5C5142" stroke-width="0.4725" stroke-linecap="round" stroke-linejoin="round"></path>
            <path d="M11.6222704,4.81019157 L11.6524926,4.27956657 C11.6644556,4.07519157 11.4415667,3.77706657 11.185937,3.70956657 L8.80782593,3.18206657 C8.5629,3.13706657 8.27327037,3.22206657 8.16434444,3.38769157 L7.66001111,3.94144157 C7.24445556,4.49394157 8.27641852,4.92581657 7.99497407,5.33581657 L7.15756667,6.26706657 C6.87486296,6.67894157 5.58852963,6.29644157 5.31841852,6.68456657 L4.78071481,7.43769157 C4.6636037,7.58519157 4.62330741,7.80644157 4.61449259,7.96269157 L4.58552963,8.48144157" id="Stroke-640" stroke="#5C5142" stroke-width="0.315" stroke-linecap="round" stroke-linejoin="round"></path>
            <path d="M5.20244074,8.88975407 L7.22481111,9.34350407" id="Stroke-641" stroke="#5C5142" stroke-width="0.4725" stroke-linecap="round" stroke-linejoin="round"></path>
            <path d="M8.24865185,8.97106657 L8.99413333,8.07856657 C9.34546667,7.55981657 8.59557778,7.15169157 8.9318,6.69356657 L9.53057778,6.02044157 C9.81139259,5.65669157 10.8465037,5.97856657 11.1153556,5.60169157 L11.2954296,5.37856657" id="Stroke-642" stroke="#5C5142" stroke-width="0.4725" stroke-linecap="round" stroke-linejoin="round"></path>
            <path d="M8.08066667,13.5286916 L8.08066667,13.0074416 C8.08066667,12.7630666 8.11214815,12.4780666 8.25633333,12.2655666 L9.07737037,11.0143166 C9.23351852,10.7743166 9.54959259,10.7136916 9.84866667,10.7761916 L11.2193704,11.0305666 C11.5662963,11.0943166 11.6664074,11.5361916 11.696,11.6986916 C11.7255926,11.8605666 11.3251481,12.6736916 11.3251481,12.6736916" id="Stroke-643" stroke="#5C5142" stroke-width="0.315" stroke-linecap="round" stroke-linejoin="round"></path>
            <path d="M17.5742852,13.2722541 L17.5742852,12.6797541 C17.5661,12.4035041 17.3835074,12.1428791 17.0731,12.0797541 L15.6488778,11.8435041 C15.2364704,11.7628791 14.7787296,12.1010041 14.3172111,12.2578791 L13.8355444,13.1166291" id="Stroke-644" stroke="#5C5142" stroke-width="0.315" stroke-linecap="round" stroke-linejoin="round"></path>
            <path d="M16.6988481,14.9464416 L17.2699222,14.0101916" id="Stroke-645" stroke="#5C5142" stroke-width="0.4725" stroke-linecap="round" stroke-linejoin="round"></path>
            <path d="M24.3589222,3.28969157 L24.3589222,2.70469157 C24.3513667,2.43094157 24.1712926,2.17281657 23.8634037,2.11031657 L22.4561815,1.87719157 C21.8907741,1.76781657 21.2378481,2.45469157 20.6094778,2.35281657 L18.9113667,2.05594157 C18.3610704,1.97031657 18.628663,1.17469157 18.0802556,1.07406657 L16.7259222,0.823441575 C16.4306259,0.761566575 16.1189593,0.820941575 15.9640704,1.05844157 L15.1518481,2.29469157 C15.0108111,2.50531657 14.9793296,2.78531657 14.9793296,3.02781657 L14.9793296,3.54281657" id="Stroke-646" stroke="#5C5142" stroke-width="0.47" stroke-linecap="round" stroke-linejoin="round"></path>
            <path d="M15.6924481,3.77175407 L16.6727815,3.95237907 C17.3798556,4.10050407 17.8980407,3.31425407 18.5811889,3.45112907 L20.1999667,3.72362907 C20.8686333,3.84112907 20.8617074,4.73550407 21.5744481,4.86487907 L22.6933,5.06362907" id="Stroke-647" stroke="#5C5142" stroke-width="0.4725" stroke-linecap="round" stroke-linejoin="round"></path>
            <path d="M23.4941259,4.94406657 L24.0589037,4.01906657" id="Stroke-648" stroke="#5C5142" stroke-width="0.4725" stroke-linecap="round" stroke-linejoin="round"></path>
            <path d="M32.5505926,3.49250407 L24.2545926,2.20562907 C24.1695926,2.07687907 24.0373704,1.97750407 23.8642222,1.94187907 L22.457,1.70812907 C22.2731481,1.67312907 22.0811111,1.72125407 21.8834074,1.79875407 L18.4248519,1.20562907 C18.3631481,1.06062907 18.2718519,0.940004075 18.0804444,0.905004075 L16.7267407,0.654379075 C16.4742593,0.602504075 16.2117037,0.638129075 16.042963,0.796879075 L12.3527037,0.0318790745 C11.6286296,-0.0899959255 10.829,0.141879075 10.4978148,0.653754075 L0.413666667,12.4625041 C0.116481481,12.8975041 0.00818518519,13.5375041 0,14.0962541 L0.453962963,24.5362541 C0.462148148,25.0525041 0.807185185,25.5243791 1.38455556,25.6331291 L23.8566667,29.7781291 C24.542963,29.9212541 25.2966296,29.6456291 25.6007407,29.1200041 L32.5726296,17.6750041 C32.832037,17.1925041 32.9667778,16.6275041 32.9768519,16.0400041 L33.6543333,4.78500407 C33.6442593,4.21000407 33.2305926,3.62000407 32.5505926,3.49250407 Z" id="Stroke-649" stroke="#5C5142" stroke-width="1.1025" stroke-linecap="round" stroke-linejoin="round"></path>
            <path d="M0.196885185,13.4229416 L22.7168481,17.5166916 C23.4478481,17.6498166 24.095737,17.4098166 24.4092926,16.9116916 L33.207737,4.40544157" id="Stroke-650" stroke="#5C5142" stroke-width="0.4725" stroke-linecap="round" stroke-linejoin="round"></path>
            <path d="M11.0583111,13.7187541 C10.6522,13.9031291 10.2643481,14.2118791 9.79401481,14.1137541 L8.80234815,13.9318791" id="Stroke-651" stroke="#5C5142" stroke-width="0.4725" stroke-linecap="round" stroke-linejoin="round"></path>
            <path d="M15.8877593,15.2355041 L14.7556852,15.0348791" id="Stroke-652" stroke="#5C5142" stroke-width="0.4725" stroke-linecap="round" stroke-linejoin="round"></path>
            <path d="M14.3762704,12.2694416 L13.8857889,13.0488166 C13.7781222,13.2006916 13.7497889,13.4256916 13.7497889,13.5838166 L13.7497889,14.1075666" id="Stroke-653" stroke="#5C5142" stroke-width="0.315" stroke-linecap="round" stroke-linejoin="round"></path>
        </g>
    </g>
</svg>