<?xml version="1.0" encoding="UTF-8"?>
<svg width="20px" height="20px" viewBox="0 0 20 20" version="1.1" xmlns="http://www.w3.org/2000/svg" xmlns:xlink="http://www.w3.org/1999/xlink">
    <title>cube_s</title>
    <g id="Page-1" stroke="none" stroke-width="1" fill="none" fill-rule="evenodd">
        <g id="Group-Copy-3" transform="translate(1.500000, 2.500000)">
            <path d="M16.3269574,1.74687704 L12.1789574,1.10343954 C12.1364574,1.03906454 12.0703463,0.989377037 11.9837722,0.971564537 L11.2801611,0.854689537 C11.1882352,0.837189537 11.0922167,0.861252037 10.9933648,0.900002037 L9.26408704,0.603439537 C9.23323519,0.530939537 9.18758704,0.470627037 9.09188333,0.453127037 L8.41503148,0.327814537 C8.28879074,0.301877037 8.15751296,0.319689537 8.07314259,0.399064537 L6.22801296,0.0165645373 C5.86597593,-0.0443729627 5.46616111,0.0715645373 5.30056852,0.327502037 L0.258494444,6.23187704 C0.109901852,6.44937704 0.0557537037,6.76937704 0.0516611111,7.04875204 L0.278642593,12.268752 C0.282735185,12.526877 0.455253704,12.7628145 0.743938889,12.8171895 L11.9799944,14.8896895 C12.3231426,14.961252 12.6999759,14.8234395 12.8520315,14.560627 L16.3379759,8.83812704 C16.4676796,8.59687704 16.53505,8.31437704 16.540087,8.02062704 L16.8788278,2.39312704 C16.8741056,2.10562704 16.6669574,1.81062704 16.3269574,1.74687704" id="Fill-629" fill="#FFFFFF"></path>
            <path d="M11.1739741,5.40412704 C11.1207704,5.48006454 11.1066037,5.59256454 11.1066037,5.67193954 L11.1066037,5.93350204 C11.1125852,6.02506454 11.2747148,6.10912704 11.4236222,6.12756454 L12.4373259,6.31725204 C12.6218074,6.35975204 12.8236037,6.28693954 12.9341037,6.11006454 L13.2467148,5.61725204 C13.4060111,5.34912704 12.9341037,5.13631454 13.0874185,4.89881454 L13.4844,4.57537704 C13.6131593,4.38693954 14.1156037,4.53850204 14.2386963,4.34381454 L14.3120481,4.22225204 C14.3608444,4.13068954 14.4411222,3.98475204 14.4411222,3.90537704 L14.4411222,3.63787704 C14.4411222,3.53412704 14.3491963,3.41850204 14.220437,3.38912704 C14.2815111,3.51006454 14.2692333,3.63162704 14.1958815,3.77193954 L14.1222148,3.89350204 C13.999437,4.08818954 13.5517704,3.93006454 13.4230111,4.11850204 L12.8661037,4.68006454 C12.7134185,4.91725204 13.1242519,5.12381454 12.9643259,5.39193954 L12.7134185,5.76912704 C12.6709185,5.84256454 12.5415296,5.86662704 12.4373259,5.84256454 L11.4236222,5.65287704 C11.3150111,5.64131454 11.1557148,5.57443954 11.1739741,5.40412704" id="Fill-631" fill="#BEB5AA"></path>
            <path d="M2.39800741,3.72475204 C2.33976667,3.79818954 2.31961852,3.90943954 2.31552593,3.98818954 L2.30135926,4.24818954 C2.30261852,4.33912704 2.4616,4.42787704 2.60987778,4.45225204 L3.61885926,4.67787704 C3.80176667,4.72693954 4.00922963,4.66225204 4.1298037,4.49100204 L4.50128519,4.04287704 C4.67600741,3.78287704 4.30169259,3.57943954 4.46885926,3.34912704 L4.76667407,3.01131454 C4.90645185,2.82850204 5.42369259,2.98912704 5.5578037,2.80037704 L5.6468963,2.68881454 C5.70135926,2.59975204 5.80524815,2.48225204 5.80965556,2.40350204 L5.82413704,2.13787704 C5.82948889,2.03506454 5.71867407,1.88631454 5.59085926,1.85225204 C5.64595185,1.97443954 5.66798889,2.08568954 5.58613704,2.22193954 L5.46461852,2.34912704 C5.33113704,2.53818954 4.86961852,2.37318954 4.73015556,2.55600204 L4.25856296,3.12350204 C4.09171111,3.35381454 4.40432222,3.54881454 4.2296,3.80881454 L3.92611852,4.14412704 C3.8788963,4.21506454 3.74824815,4.23443954 3.64467407,4.20662704 L2.63569259,3.98100204 C2.52676667,3.96537704 2.3703037,3.89350204 2.39800741,3.72475204" id="Fill-632" fill="#BEB5AA"></path>
            <path d="M4.04033333,6.50372079 L4.04033333,6.76434579 C4.04190741,6.87684579 4.24181481,6.94684579 4.40111111,6.96590829 L4.89694444,7.05684579 C5.17492593,7.11497079 5.4887963,6.84965829 5.64148148,6.81684579 C5.73435185,6.79653329 5.86562963,6.60122079 5.88483333,6.39590829 L5.92292593,6.00747079 C5.92418519,5.93778329 5.84485185,5.97090829 5.82218519,6.00153329 L5.6417963,6.36622079 C5.3952963,6.43840829 5.17492593,6.66497079 4.89694444,6.60715829 L4.40111111,6.51528329 C4.2732963,6.50465829 4.04977778,6.36340829 4.04033333,6.50372079" id="Fill-633" fill="#BEB5AA"></path>
            <path d="M6.91837037,6.63553329 C7.0527963,6.79303329 7.12803704,7.02334579 7.37768519,7.06865829 L7.94403704,7.16928329 C8.05044444,7.18772079 8.17133333,7.15365829 8.2087963,7.07772079 L8.68416667,6.33397079 C8.70746296,6.30272079 8.78837037,6.26865829 8.7867963,6.34022079 L8.7867963,6.63615829 C8.78553704,6.71397079 8.71848148,6.88490829 8.63505556,7.00522079 L8.34888889,7.47303329 C8.27301852,7.60365829 8.12096296,7.65334579 7.94403704,7.61897079 L7.37768519,7.51865829 C7.12772222,7.47365829 7.05248148,7.24240829 6.91774074,7.08490829 L6.91837037,6.63553329 Z" id="Fill-634" fill="#BEB5AA"></path>
            <path d="M7.50354815,1.42565829 L7.50354815,1.68159579 C7.50512222,1.79190829 7.70188148,1.86097079 7.85802963,1.87909579 L8.34536296,1.96909579 C8.69764074,2.04284579 8.95547407,1.65222079 9.2939,1.72003329 L10.0998259,1.85534579 C10.4319556,1.91409579 10.4284926,2.35878329 10.7826593,2.42315829 L11.338937,2.52190829 C11.5133444,2.55503329 11.6622519,2.50597079 11.7378074,2.37815829 L12.0183074,1.91815829 C12.1004741,1.79972079 12.1662704,1.63222079 12.1675296,1.55534579 L12.1675296,1.26440829 C12.1687889,1.19472079 12.0894556,1.22784579 12.0667889,1.25847079 L11.5992889,1.98909579 C11.5624556,2.06378329 11.4444,2.09753329 11.338937,2.07940829 L10.7826593,1.98034579 C10.4284926,1.91597079 10.4319556,1.47159579 10.0998259,1.41315829 L9.2939,1.27753329 C8.95547407,1.20940829 8.69764074,1.60034579 8.34536296,1.52659579 L7.85802963,1.43690829 C7.73241852,1.42597079 7.51236296,1.28784579 7.50354815,1.42565829" id="Fill-635" fill="#BEB5AA"></path>
            <path d="M12.6891463,14.559877 L16.2862204,8.83706454 C16.4159241,8.59643954 16.4832944,8.31393954 16.4883315,8.02018954 L16.827387,2.39237704 C16.8267574,2.21612704 16.7486833,2.10550204 16.655813,2.22206454 L12.0932019,8.56612704 C11.9716833,8.76643954 11.8995907,8.84925204 11.9027389,9.08737704 L11.9027389,14.3858145 C11.9055722,14.793002 12.4694056,14.935502 12.6891463,14.559877" id="Fill-636" fill="#BEB5AA"></path>
            <path d="M14.4410907,3.90568954 L14.4410907,3.63787704 C14.4410907,3.53443954 14.3491648,3.41881454 14.2204056,3.38912704 L13.0121463,3.18131454 C12.8893685,3.16318954 12.7483315,3.21193954 12.6992204,3.29725204 L12.509387,3.59506454 C12.3192389,3.88162704 12.8641833,4.07693954 12.7360537,4.28912704 L12.3091648,4.76350204 C12.1804056,4.97662704 11.5737574,4.81350204 11.4509796,5.01475204 L11.1739426,5.40443954 C11.1204241,5.48006454 11.1062574,5.59287704 11.1062574,5.67193954 L11.1062574,5.93381454" id="Stroke-637" stroke="#5C5142" stroke-width="0.1575" stroke-linecap="round" stroke-linejoin="round"></path>
            <path d="M11.4234963,6.12781454 L12.4372,6.31718954" id="Stroke-638" stroke="#5C5142" stroke-width="0.23625" stroke-linecap="round" stroke-linejoin="round"></path>
            <path d="M12.9341037,6.11028329 L13.2467148,5.61684579 C13.4063259,5.34934579 12.9341037,5.13622079 13.0874185,4.89903329 L13.4844,4.57559579 C13.6131593,4.38653329 14.1159185,4.53872079 14.2386963,4.34403329 L14.312363,4.22215829" id="Stroke-639" stroke="#5C5142" stroke-width="0.23625" stroke-linecap="round" stroke-linejoin="round"></path>
            <path d="M5.81113519,2.40509579 L5.8262463,2.13978329 C5.83222778,2.03759579 5.72078333,1.88853329 5.59296852,1.85478329 L4.40391296,1.59103329 C4.28145,1.56853329 4.13663519,1.61103329 4.08217222,1.69384579 L3.83000556,1.97072079 C3.62222778,2.24697079 4.13820926,2.46290829 3.99748704,2.66790829 L3.57878333,3.13353329 C3.43743148,3.33947079 2.79426481,3.14822079 2.65920926,3.34228329 L2.39035741,3.71884579 C2.33180185,3.79259579 2.3116537,3.90322079 2.3072463,3.98134579 L2.29276481,4.24072079" id="Stroke-640" stroke="#5C5142" stroke-width="0.1575" stroke-linecap="round" stroke-linejoin="round"></path>
            <path d="M2.60122037,4.44487704 L3.61240556,4.67175204" id="Stroke-641" stroke="#5C5142" stroke-width="0.23625" stroke-linecap="round" stroke-linejoin="round"></path>
            <path d="M4.12432593,4.48553329 L4.49706667,4.03928329 C4.67273333,3.77990829 4.29778889,3.57584579 4.4659,3.34678329 L4.76528889,3.01022079 C4.9056963,2.82834579 5.42325185,2.98928329 5.55767778,2.80084579 L5.64771481,2.68928329" id="Stroke-642" stroke="#5C5142" stroke-width="0.23625" stroke-linecap="round" stroke-linejoin="round"></path>
            <path d="M4.04033333,6.76434579 L4.04033333,6.50372079 C4.04033333,6.38153329 4.05607407,6.23903329 4.12816667,6.13278329 L4.53868519,5.50715829 C4.61675926,5.38715829 4.7747963,5.35684579 4.92433333,5.38809579 L5.60968519,5.51528329 C5.78314815,5.54715829 5.8332037,5.76809579 5.848,5.84934579 C5.8627963,5.93028329 5.66257407,6.33684579 5.66257407,6.33684579" id="Stroke-643" stroke="#5C5142" stroke-width="0.1575" stroke-linecap="round" stroke-linejoin="round"></path>
            <path d="M8.78714259,6.63612704 L8.78714259,6.33987704 C8.78305,6.20175204 8.6917537,6.07143954 8.53655,6.03987704 L7.82443889,5.92175204 C7.61823519,5.88143954 7.38936481,6.05050204 7.15860556,6.12893954 L6.91777222,6.55831454" id="Stroke-644" stroke="#5C5142" stroke-width="0.1575" stroke-linecap="round" stroke-linejoin="round"></path>
            <path d="M8.34942407,7.47322079 L8.63496111,7.00509579" id="Stroke-645" stroke="#5C5142" stroke-width="0.23625" stroke-linecap="round" stroke-linejoin="round"></path>
            <path d="M12.1794611,1.64484579 L12.1794611,1.35234579 C12.1756833,1.21547079 12.0856463,1.08640829 11.9317019,1.05515829 L11.2280907,0.938595787 C10.945387,0.883908287 10.6189241,1.22734579 10.3047389,1.17640829 L9.45568333,1.02797079 C9.18053519,0.985158287 9.31433148,0.587345787 9.04012778,0.537033287 L8.36296111,0.411720787 C8.21531296,0.380783287 8.05947963,0.410470787 7.98203519,0.529220787 L7.57592407,1.14734579 C7.50540556,1.25265829 7.48966481,1.39265829 7.48966481,1.51390829 L7.48966481,1.77140829" id="Stroke-646" stroke="#5C5142" stroke-width="0.23625" stroke-linecap="round" stroke-linejoin="round"></path>
            <path d="M7.84622407,1.88587704 L8.33639074,1.97618954 C8.68992778,2.05025204 8.94902037,1.65712704 9.29059444,1.72556454 L10.0999833,1.86181454 C10.4343167,1.92056454 10.4308537,2.36775204 10.7872241,2.43243954 L11.34665,2.53181454" id="Stroke-647" stroke="#5C5142" stroke-width="0.23625" stroke-linecap="round" stroke-linejoin="round"></path>
            <path d="M11.747063,2.47203329 L12.0294519,2.00953329" id="Stroke-648" stroke="#5C5142" stroke-width="0.23625" stroke-linecap="round" stroke-linejoin="round"></path>
            <path d="M16.2752963,1.74625204 L12.1272963,1.10281454 C12.0847963,1.03843954 12.0186852,0.988752037 11.9321111,0.970939537 L11.2285,0.854064537 C11.1365741,0.836564537 11.0405556,0.860627037 10.9417037,0.899377037 L9.21242593,0.602814537 C9.18157407,0.530314537 9.13592593,0.470002037 9.04022222,0.452502037 L8.36337037,0.327189537 C8.23712963,0.301252037 8.10585185,0.319064537 8.02148148,0.398439537 L6.17635185,0.0159395373 C5.81431481,-0.0449979627 5.4145,0.0709395373 5.24890741,0.326877037 L0.206833333,6.23125204 C0.0582407407,6.44875204 0.00409259259,6.76875204 0,7.04812704 L0.226981481,12.268127 C0.231074074,12.526252 0.403592593,12.7621895 0.692277778,12.8165645 L11.9283333,14.8890645 C12.2714815,14.960627 12.6483148,14.8228145 12.8003704,14.560002 L16.2863148,8.83750204 C16.4160185,8.59625204 16.4833889,8.31375204 16.4884259,8.02000204 L16.8271667,2.39250204 C16.8221296,2.10500204 16.6152963,1.81000204 16.2752963,1.74625204 Z" id="Stroke-649" stroke="#5C5142" stroke-width="0.55125" stroke-linecap="round" stroke-linejoin="round"></path>
            <path d="M0.0984425926,6.71147079 L11.3584241,8.75834579 C11.7239241,8.82490829 12.0478685,8.70490829 12.2046463,8.45584579 L16.6038685,2.20272079" id="Stroke-650" stroke="#5C5142" stroke-width="0.23625" stroke-linecap="round" stroke-linejoin="round"></path>
            <path d="M5.52915556,6.85937704 C5.3261,6.95156454 5.13217407,7.10593954 4.89700741,7.05687704 L4.40117407,6.96593954" id="Stroke-651" stroke="#5C5142" stroke-width="0.23625" stroke-linecap="round" stroke-linejoin="round"></path>
            <path d="M7.94387963,7.61775204 L7.37784259,7.51743954" id="Stroke-652" stroke="#5C5142" stroke-width="0.23625" stroke-linecap="round" stroke-linejoin="round"></path>
            <path d="M7.18813519,6.13472079 L6.94289444,6.52440829 C6.88906111,6.60034579 6.87489444,6.71284579 6.87489444,6.79190829 L6.87489444,7.05378329" id="Stroke-653" stroke="#5C5142" stroke-width="0.1575" stroke-linecap="round" stroke-linejoin="round"></path>
        </g>
    </g>
</svg>