<?xml version="1.0" encoding="utf-8"?>
<!-- Generator: Adobe Illustrator 25.1.0, SVG Export Plug-In . SVG Version: 6.00 Build 0)  -->
<svg version="1.1" xmlns="http://www.w3.org/2000/svg" xmlns:xlink="http://www.w3.org/1999/xlink" x="0px" y="0px"
	 viewBox="0 0 40 40" style="enable-background:new 0 0 40 40;" xml:space="preserve">
<style type="text/css">
	.st0{opacity:0.4;}
	.st1{fill-rule:evenodd;clip-rule:evenodd;fill:#FFFFFF;}
	.st2{fill-rule:evenodd;clip-rule:evenodd;fill:#BEB5AA;}
	.st3{fill:none;stroke:#5C5142;stroke-width:0.315;stroke-linecap:round;stroke-linejoin:round;}
	.st4{fill:none;stroke:#5C5142;stroke-width:0.4725;stroke-linecap:round;stroke-linejoin:round;}
	.st5{fill:none;stroke:#5C5142;stroke-width:0.47;stroke-linecap:round;stroke-linejoin:round;}
	.st6{fill:none;stroke:#5C5142;stroke-width:1.1025;stroke-linecap:round;stroke-linejoin:round;}
	.st7{fill-rule:evenodd;clip-rule:evenodd;fill:#999999;}
	.st8{fill:#FFFFFF;}
	.st9{fill-rule:evenodd;clip-rule:evenodd;fill:#FF8C1A;}
</style>
<g id="レイヤー_1">
	<desc>Created with Sketch.</desc>
	<g id="Group-Copy-6" transform="translate(3.000000, 5.000000)" class="st0">
		<path id="Fill-629" class="st1" d="M32.7,3.5l-8.3-1.3C24.3,2.1,24.1,2,24,1.9l-1.4-0.2c-0.2,0-0.4,0-0.6,0.1l-3.5-0.6
			c-0.1-0.1-0.2-0.3-0.3-0.3l-1.4-0.3c-0.3-0.1-0.5,0-0.7,0.1L12.5,0c-0.7-0.1-1.5,0.1-1.9,0.6L0.5,12.5c-0.3,0.4-0.4,1.1-0.4,1.6
			l0.5,10.4c0,0.5,0.4,1,0.9,1.1L24,29.8c0.7,0.1,1.4-0.1,1.7-0.7l7-11.4c0.3-0.5,0.4-1,0.4-1.6l0.7-11.3
			C33.7,4.2,33.3,3.6,32.7,3.5"/>
		<path id="Fill-631" class="st2" d="M22.3,10.8c-0.1,0.2-0.1,0.4-0.1,0.5v0.5c0,0.2,0.3,0.4,0.6,0.4l2,0.4c0.4,0.1,0.8-0.1,1-0.4
			l0.6-1c0.3-0.5-0.6-1-0.3-1.4L27,9.2c0.3-0.4,1.3-0.1,1.5-0.5l0.1-0.2c0.1-0.2,0.3-0.5,0.3-0.6V7.3c0-0.2-0.2-0.4-0.4-0.5
			c0.1,0.2,0.1,0.5,0,0.8l-0.1,0.2c-0.2,0.4-1.1,0.1-1.4,0.5l-1.1,1.1c-0.3,0.5,0.5,0.9,0.2,1.4l-0.5,0.8c-0.1,0.1-0.3,0.2-0.6,0.1
			l-2-0.4C22.6,11.3,22.3,11.1,22.3,10.8"/>
		<path id="Fill-632" class="st2" d="M4.8,7.4C4.7,7.6,4.6,7.8,4.6,8l0,0.5c0,0.2,0.3,0.4,0.6,0.4l2,0.5c0.4,0.1,0.8,0,1-0.4L9,8.1
			c0.3-0.5-0.4-0.9-0.1-1.4L9.5,6c0.3-0.4,1.3,0,1.6-0.4l0.2-0.2c0.1-0.2,0.3-0.4,0.3-0.6l0-0.5c0-0.2-0.2-0.5-0.5-0.6
			c0.1,0.2,0.2,0.5,0,0.7l-0.2,0.3c-0.3,0.4-1.2,0-1.5,0.4L8.5,6.2C8.2,6.7,8.8,7.1,8.5,7.6L7.9,8.3C7.8,8.4,7.5,8.5,7.3,8.4L5.3,8
			C5.1,7.9,4.7,7.8,4.8,7.4"/>
		<path id="Fill-633" class="st2" d="M8.1,13v0.5c0,0.2,0.4,0.4,0.7,0.4l1,0.2c0.6,0.1,1.2-0.4,1.5-0.5c0.2,0,0.4-0.4,0.5-0.8
			l0.1-0.8c0-0.1-0.2-0.1-0.2,0l-0.4,0.7c-0.5,0.1-0.9,0.6-1.5,0.5l-1-0.2C8.5,13,8.1,12.7,8.1,13"/>
		<path id="Fill-634" class="st2" d="M13.8,13.3c0.3,0.3,0.4,0.8,0.9,0.9l1.1,0.2c0.2,0,0.5,0,0.5-0.2l1-1.5c0-0.1,0.2-0.1,0.2,0
			v0.6c0,0.2-0.1,0.5-0.3,0.7l-0.6,0.9c-0.2,0.3-0.5,0.4-0.8,0.3L14.8,15c-0.5-0.1-0.7-0.6-0.9-0.9L13.8,13.3z"/>
		<path id="Fill-635" class="st2" d="M15,2.9v0.5c0,0.2,0.4,0.4,0.7,0.4l1,0.2c0.7,0.1,1.2-0.6,1.9-0.5l1.6,0.3
			c0.7,0.1,0.7,1,1.4,1.1L22.7,5c0.3,0.1,0.6,0,0.8-0.3L24,3.8c0.2-0.2,0.3-0.6,0.3-0.7V2.5c0-0.1-0.2-0.1-0.2,0L23.2,4
			c-0.1,0.1-0.3,0.2-0.5,0.2L21.6,4c-0.7-0.1-0.7-1-1.4-1.1l-1.6-0.3c-0.7-0.1-1.2,0.6-1.9,0.5l-1-0.2C15.5,2.9,15,2.6,15,2.9"/>
		<path id="Fill-636" class="st2" d="M25.4,29.1l7.2-11.4c0.3-0.5,0.4-1,0.4-1.6l0.7-11.3c0-0.4-0.2-0.6-0.3-0.3l-9.1,12.7
			c-0.2,0.4-0.4,0.6-0.4,1v10.6C23.8,29.6,24.9,29.9,25.4,29.1"/>
		<path id="Stroke-637" class="st3" d="M28.9,7.8V7.3c0-0.2-0.2-0.4-0.4-0.5L26,6.4c-0.2,0-0.5,0.1-0.6,0.2L25,7.2
			c-0.4,0.6,0.7,1,0.5,1.4l-0.9,0.9c-0.3,0.4-1.5,0.1-1.7,0.5l-0.6,0.8c-0.1,0.2-0.1,0.4-0.1,0.5v0.5"/>
		<path id="Stroke-638" class="st4" d="M22.8,12.3l2,0.4"/>
		<path id="Stroke-639" class="st4" d="M25.9,12.2l0.6-1c0.3-0.5-0.6-1-0.3-1.4L27,9.2c0.3-0.4,1.3-0.1,1.5-0.5l0.1-0.2"/>
		<path id="Stroke-640" class="st3" d="M11.6,4.8l0-0.5c0-0.2-0.2-0.5-0.5-0.6L8.8,3.2c-0.2,0-0.5,0-0.6,0.2L7.7,3.9
			C7.2,4.5,8.3,4.9,8,5.3L7.2,6.3c-0.3,0.4-1.6,0-1.8,0.4L4.8,7.4C4.7,7.6,4.6,7.8,4.6,8l0,0.5"/>
		<path id="Stroke-641" class="st4" d="M5.2,8.9l2,0.5"/>
		<path id="Stroke-642" class="st4" d="M8.2,9L9,8.1c0.4-0.5-0.4-0.9-0.1-1.4L9.5,6c0.3-0.4,1.3,0,1.6-0.4l0.2-0.2"/>
		<path id="Stroke-643" class="st3" d="M8.1,13.5V13c0-0.2,0-0.5,0.2-0.7L9.1,11c0.2-0.2,0.5-0.3,0.8-0.2l1.4,0.3
			c0.3,0.1,0.4,0.5,0.5,0.7c0,0.2-0.4,1-0.4,1"/>
		<path id="Stroke-644" class="st3" d="M17.6,13.3v-0.6c0-0.3-0.2-0.5-0.5-0.6l-1.4-0.2c-0.4-0.1-0.9,0.3-1.3,0.4l-0.5,0.9"/>
		<path id="Stroke-645" class="st4" d="M16.7,14.9l0.6-0.9"/>
		<path id="Stroke-646" class="st5" d="M24.4,3.3V2.7c0-0.3-0.2-0.5-0.5-0.6l-1.4-0.2c-0.6-0.1-1.2,0.6-1.8,0.5l-1.7-0.3
			c-0.6-0.1-0.3-0.9-0.8-1l-1.4-0.3c-0.3-0.1-0.6,0-0.8,0.2l-0.8,1.2C15,2.5,15,2.8,15,3v0.5"/>
		<path id="Stroke-647" class="st4" d="M15.7,3.8l1,0.2c0.7,0.1,1.2-0.6,1.9-0.5l1.6,0.3c0.7,0.1,0.7,1,1.4,1.1l1.1,0.2"/>
		<path id="Stroke-648" class="st4" d="M23.5,4.9L24.1,4"/>
		<path id="Stroke-649" class="st6" d="M32.6,3.5l-8.3-1.3C24.2,2.1,24,2,23.9,1.9l-1.4-0.2c-0.2,0-0.4,0-0.6,0.1l-3.5-0.6
			c-0.1-0.1-0.2-0.3-0.3-0.3l-1.4-0.3c-0.3-0.1-0.5,0-0.7,0.1L12.4,0c-0.7-0.1-1.5,0.1-1.9,0.6L0.4,12.5C0.1,12.9,0,13.5,0,14.1
			l0.5,10.4c0,0.5,0.4,1,0.9,1.1l22.5,4.1c0.7,0.1,1.4-0.1,1.7-0.7l7-11.4c0.3-0.5,0.4-1,0.4-1.6l0.7-11.3
			C33.6,4.2,33.2,3.6,32.6,3.5z"/>
		<path id="Stroke-650" class="st4" d="M0.2,13.4l22.5,4.1c0.7,0.1,1.4-0.1,1.7-0.6l8.8-12.5"/>
		<path id="Stroke-651" class="st4" d="M11.1,13.7c-0.4,0.2-0.8,0.5-1.3,0.4l-1-0.2"/>
		<path id="Stroke-652" class="st4" d="M15.9,15.2L14.8,15"/>
		<path id="Stroke-653" class="st3" d="M14.4,12.3L13.9,13c-0.1,0.2-0.1,0.4-0.1,0.5v0.5"/>
	</g>
	<path id="Fill-1" class="st7" d="M40,33c0,3.9-3.1,7-7,7c-3.9,0-7-3.1-7-7c0-3.9,3.1-7,7-7C36.9,26,40,29.1,40,33"/>
	<path id="_x32_" class="st8" d="M35.3,34.7V36h-4.4v-1.2l0.5-0.5c1.7-1.5,2.2-2.1,2.2-2.7c0-0.5-0.4-0.8-0.9-0.8
		c-0.4,0-0.8,0.1-1.4,0.4l-0.5-1.1c0.6-0.4,1.4-0.6,2-0.6c1.4,0,2.3,0.7,2.3,2c0,1.1-0.8,1.9-2.4,3.2H35.3z"/>
</g>
<g id="レイヤー_2">
	<g id="not-connected">
		<g id="Group_1_">
			<circle id="Oval_1_" class="st9" cx="10" cy="8" r="8"/>
			<path id="Fill-1_1_" class="st1" d="M10,9.1c-0.6,0-1.2,0.5-1.2,1.1s0.5,1.1,1.2,1.1s1.2-0.5,1.2-1.1S10.6,9.1,10,9.1 M10.7,8.1
				c-0.3,0.7-1,0.7-1.3,0L8.4,6C8.1,5.4,8.5,4.6,9.1,4.6h1.9c0.6,0,1,0.8,0.7,1.5L10.7,8.1z"/>
		</g>
	</g>
</g>
</svg>
