<?xml version="1.0" encoding="UTF-8"?>
<svg width="69px" height="26px" viewBox="0 0 69 26" version="1.1" xmlns="http://www.w3.org/2000/svg" xmlns:xlink="http://www.w3.org/1999/xlink">
    <title>logo</title>
    <g id="Page-1" stroke="none" stroke-width="1" fill="none" fill-rule="evenodd">
        <path d="M46.2788781,16.1809117 C46.2788781,18.5422651 48.1535809,20.4636461 50.4585824,20.4636461 C52.7627885,20.4636461 54.6377563,18.5422651 54.6377563,16.1809117 C54.6377563,13.8195583 52.7627885,11.8984437 50.4585824,11.8984437 C48.1535809,11.8984437 46.2788781,13.8195583 46.2788781,16.1809117 Z M42.8094453,16.1811782 C42.8094453,11.8872512 46.1693813,8.5236351 50.4585824,8.5236351 C54.7472532,8.5236351 58.1074543,11.8872512 58.1074543,16.1811782 C58.1074543,20.4748387 54.7472532,23.8384548 50.4585824,23.8384548 C46.1693813,23.8384548 42.8094453,20.4748387 42.8094453,16.1811782 Z M26.6626898,20.4637261 C28.9674261,20.4637261 30.842394,18.542345 30.842394,16.1809916 C30.842394,13.8193718 28.9674261,11.8982572 26.6626898,11.8982572 C24.3582185,11.8982572 22.4832507,13.8193718 22.4832507,16.1809916 C22.4832507,18.542345 24.3582185,20.4637261 26.6626898,20.4637261 Z M26.6626898,8.52344855 C30.9518908,8.52344855 34.3118269,11.8870647 34.3118269,16.1812581 C34.3118269,20.4749186 30.9518908,23.8385347 26.6626898,23.8385347 C22.3734887,23.8385347 19.0135527,20.4749186 19.0135527,16.1812581 C19.0135527,11.8870647 22.3734887,8.52344855 26.6626898,8.52344855 Z M13.6086238,12.7248774 L13.6086238,15.115811 C13.6086238,15.115811 13.6165776,15.9088804 13.6165776,16.2795657 C13.6165776,16.9937545 13.7645176,17.8526465 14.016652,18.3837578 C14.7242721,19.8763591 16.2943456,20.6195951 16.987914,20.9577689 L15.2007027,24 C13.4837497,23.4435723 11.5904881,22.066094 10.7001966,19.9848199 C10.2746701,18.9900188 10,17.7468506 10,16.3659079 L10,4.37979437 L13.6086238,4.37979437 L13.6086238,9.16992267 L17.5648272,9.16992267 L17.5648272,12.7248774 L13.6086238,12.7248774 Z M36.2123793,4.3997277 C36.2123793,3.07661298 37.2659883,2 38.5605963,2 C39.8554695,2 40.9085481,3.07661298 40.9085481,4.3997277 C40.9085481,5.67887183 39.8554695,6.72004186 38.5605963,6.72004186 C37.2659883,6.72004186 36.2123793,5.67887183 36.2123793,4.3997277 Z M36.7920498,23.472886 L36.7920498,9.16992267 L40.3288246,9.16992267 L40.3288246,23.472886 L36.7920498,23.472886 Z M57.6973846,22.4881316 L57.1965625,22.4881316 L57.1965625,22.3154471 L58.3861808,22.3154471 L58.3861808,22.4881316 L57.8909263,22.4881316 L57.8909263,23.8384281 L57.6973846,23.8384281 L57.6973846,22.4881316 Z M59.1897763,23.8385347 L58.7769759,22.6017622 L58.7769759,23.8385347 L58.5781317,23.8385347 L58.5781317,22.3152872 L58.8543925,22.3152872 L59.288403,23.6106872 L59.7255951,22.3152872 L60,22.3152872 L60,23.8385347 L59.8011558,23.8385347 L59.8011558,22.6017622 L59.3872949,23.8385347 L59.1897763,23.8385347 Z" id="Combined-Shape-Copy" fill="#FFFFFF"></path>
    </g>
</svg>